<?xml version="1.0" encoding="UTF-8"?>
<svg width="40px" height="37px" viewBox="0 0 40 37" version="1.1" xmlns="http://www.w3.org/2000/svg" xmlns:xlink="http://www.w3.org/1999/xlink">
    <!-- Generator: Sketch 51.2 (57519) - http://www.bohemiancoding.com/sketch -->
    <title>Group 57</title>
    <desc>Created with Sketch.</desc>
    <defs></defs>
    <g id="Case-Management" stroke="none" stroke-width="1" fill="none" fill-rule="evenodd">
        <g id="Group-57" transform="translate(0.000000, -2.000000)">
            <rect id="Rectangle-11-Copy" fill-rule="nonzero" x="0" y="0" width="40" height="40"></rect>
            <path d="M32.6808511,2 L32.6808511,21.9148936 L23.6595745,30.0851064 L23.6595745,10.1702128 L32.6808511,2 Z M10.0425532,7.44680851 C11.8014272,7.39007064 13.5602749,7.57446596 15.3191489,8 C17.078023,8.42553404 18.6382911,9.14893106 20,10.1702128 L20,34.6808511 C21.3049711,33.8865209 22.8936077,33.2340451 24.7659574,32.7234043 C26.6383072,32.2127634 28.3687864,31.9574468 29.9574468,31.9574468 C32.1702238,31.9007089 34.2978621,32.184394 36.3404255,32.8085106 L36.3404255,8.29787234 C37.7021345,8.75177532 38.9219804,9.37588255 40,10.1702128 L40,36.6382979 C39.9432621,36.8652494 39.8297881,37.0638289 39.6595745,37.2340426 C39.4893609,37.4042562 39.3049655,37.503546 39.106383,37.5319149 C38.9078004,37.5602838 38.7517736,37.5460996 38.6382979,37.4893617 C37.3333268,36.8085072 35.9432698,36.3120583 34.4680851,36 C32.9929004,35.6879417 31.4751851,35.5460991 29.9148936,35.5744681 C28.3546021,35.602837 26.6383072,35.8581536 24.7659574,36.3404255 C22.8936077,36.8226974 21.3049711,37.4609889 20,38.2553191 C18.6382911,37.2907753 17.078023,36.5957468 15.3191489,36.1702128 C13.5602749,35.7446787 11.8014272,35.5319149 10.0425532,35.5319149 C8.68084426,35.5319149 7.21986596,35.7163102 5.65957447,36.0851064 C4.09928298,36.4539026 2.66667319,36.9503515 1.36170213,37.5744681 L0.936170213,37.6595745 C0.709218723,37.6595745 0.496454894,37.5744689 0.29787234,37.4042553 C0.0992897872,37.2340417 0,37.0070936 0,36.7234043 L0,10.1702128 C1.36170894,9.14893106 2.92197702,8.42553404 4.68085106,8 C6.43972511,7.57446596 8.22694128,7.39007064 10.0425532,7.44680851 Z" id="" fill="#4A4A4A"></path>
        </g>
    </g>
</svg>