<?xml version="1.0" encoding="UTF-8"?>
<svg width="36px" height="40px" viewBox="0 0 36 40" version="1.1" xmlns="http://www.w3.org/2000/svg" xmlns:xlink="http://www.w3.org/1999/xlink">
    <!-- Generator: Sketch 51.2 (57519) - http://www.bohemiancoding.com/sketch -->
    <title>Group 63</title>
    <desc>Created with Sketch.</desc>
    <defs></defs>
    <g id="Case-Management" stroke="none" stroke-width="1" fill="none" fill-rule="evenodd">
        <g id="Group-63" transform="translate(-2.000000, 0.000000)">
            <rect id="Rectangle-11-Copy-7" fill-rule="nonzero" x="0" y="0" width="40" height="40"></rect>
            <path d="M24.2916667,20 L24.2916667,15.5208333 L15.3333333,15.5208333 L15.3333333,20 L24.2916667,20 Z M24.2916667,28.8541667 L24.2916667,24.4791667 L15.3333333,24.4791667 L15.3333333,28.8541667 L24.2916667,28.8541667 Z M37.625,11.1458333 L37.625,15.5208333 L32.9375,15.5208333 C33.0763896,16.284726 33.1458333,17.0486073 33.1458333,17.8125 L33.1458333,20 L37.625,20 L37.625,24.4791667 L33.1458333,24.4791667 L33.1458333,26.6666667 C33.1458333,27.4305594 33.0763896,28.1597187 32.9375,28.8541667 L37.625,28.8541667 L37.625,33.3333333 L31.375,33.3333333 C30.1944385,35.3472323 28.5972323,36.9617995 26.5833333,38.1770833 C24.5694344,39.3923672 22.3125125,40 19.8125,40 C17.3124875,40 15.0555656,39.3923672 13.0416667,38.1770833 C11.0277677,36.9617995 9.43056146,35.3472323 8.25,33.3333333 L2,33.3333333 L2,28.8541667 L6.6875,28.8541667 C6.54861042,28.1597187 6.47916667,27.4305594 6.47916667,26.6666667 L6.47916667,24.4791667 L2,24.4791667 L2,20 L6.47916667,20 L6.47916667,17.8125 C6.47916667,17.0486073 6.54861042,16.284726 6.6875,15.5208333 L2,15.5208333 L2,11.1458333 L8.25,11.1458333 C9.29167187,9.34026875 10.645825,7.88195 12.3125,6.77083333 L8.66666667,3.125 L11.7916667,0 L16.6875,4.79166667 C17.6597271,4.58333229 18.7013833,4.47916667 19.8125,4.47916667 C20.9236167,4.47916667 21.9652729,4.58333229 22.9375,4.79166667 L27.8333333,0 L30.9583333,3.125 L27.3125,6.77083333 C28.979175,7.88195 30.3333281,9.34026875 31.375,11.1458333 L37.625,11.1458333 Z" id="" fill="#4A4A4A"></path>
        </g>
    </g>
</svg>