<?xml version="1.0" encoding="UTF-8"?>
<svg width="40px" height="40px" viewBox="0 0 40 40" version="1.1" xmlns="http://www.w3.org/2000/svg" xmlns:xlink="http://www.w3.org/1999/xlink">
    <!-- Generator: Sketch 51.2 (57519) - http://www.bohemiancoding.com/sketch -->
    <title>Group 56</title>
    <desc>Created with Sketch.</desc>
    <defs></defs>
    <g id="Case-Management" stroke="none" stroke-width="1" fill="none" fill-rule="evenodd">
        <g id="Group-56">
            <rect id="Rectangle-11" fill-rule="nonzero" x="0" y="0" width="40" height="40"></rect>
            <path d="M29.9765808,0 C31.1007082,0 32.037467,0.390316159 32.7868852,1.17096019 C33.5363035,1.95160422 33.911007,2.90397564 33.911007,4.02810304 L33.911007,23.9812646 C33.911007,25.105392 33.5363035,26.0421508 32.7868852,26.7915691 C32.037467,27.5409874 31.1007082,27.9469162 29.9765808,28.0093677 L21.9203747,28.0093677 L21.9203747,31.9437939 L23.9812646,31.9437939 C24.5433283,32.0062454 25.0117077,32.2248225 25.3864169,32.5995316 C25.761126,32.9742407 25.9484778,33.4426201 25.9484778,34.0046838 L39.9063232,34.0046838 L39.9063232,37.9391101 L25.9484778,37.9391101 C25.9484778,38.5011738 25.761126,38.9695532 25.3864169,39.3442623 C25.0117077,39.7189714 24.5433283,39.9375485 23.9812646,40 L15.9250585,40 C15.3629948,39.9375485 14.8946155,39.7189714 14.5199063,39.3442623 C14.1451972,38.9695532 13.9578454,38.5011738 13.9578454,37.9391101 L0,37.9391101 L0,34.0046838 L13.9578454,34.0046838 C13.9578454,33.4426201 14.1451972,32.9742407 14.5199063,32.5995316 C14.8946155,32.2248225 15.3629948,32.0062454 15.9250585,31.9437939 L17.9859485,31.9437939 L17.9859485,28.0093677 L9.92974239,28.0093677 C8.80561499,27.9469162 7.86885621,27.5409874 7.11943794,26.7915691 C6.37001967,26.0421508 5.99531616,25.105392 5.99531616,23.9812646 L5.99531616,4.02810304 C5.99531616,2.90397564 6.37001967,1.95160422 7.11943794,1.17096019 C7.86885621,0.390316159 8.80561499,0 9.92974239,0 L29.9765808,0 Z M19.9531616,7.99375488 C18.2669705,8.02498064 16.854026,8.61045488 15.7142857,9.75019516 C14.5745454,10.8899354 13.9890712,12.3028799 13.9578454,13.989071 C13.9578454,15.1131984 14.2310667,16.1280205 14.7775176,17.0335675 C15.3239684,17.9391146 16.0499564,18.6572963 16.9555035,19.1881343 L16.9555035,20.9679938 C16.9555035,21.2490256 17.0491794,21.4832153 17.236534,21.6705699 C17.4238885,21.8579244 17.6580782,21.967213 17.9391101,21.9984387 L21.9672131,21.9984387 C22.248245,21.967213 22.4824347,21.8579244 22.6697892,21.6705699 C22.8571438,21.4832153 22.9508197,21.2490256 22.9508197,20.9679938 L22.9508197,19.1881343 C23.8563667,18.6572963 24.5823548,17.9391146 25.1288056,17.0335675 C25.6752564,16.1280205 25.9484778,15.1131984 25.9484778,13.989071 C25.917252,12.3028799 25.3317778,10.8899354 24.1920375,9.75019516 C23.0522972,8.61045488 21.6393527,8.02498064 19.9531616,7.99375488 Z M21.9672131,22.9820453 L17.9391101,22.9820453 L17.9391101,23.9656518 C17.9703358,24.2466837 18.0796244,24.4808734 18.2669789,24.6682279 C18.4543335,24.8555825 18.6885232,24.964871 18.969555,24.9960968 L20.9367681,24.9960968 C21.2178,24.964871 21.4519897,24.8555825 21.6393443,24.6682279 C21.8266988,24.4808734 21.9359874,24.2466837 21.9672131,23.9656518 L21.9672131,22.9820453 Z M27.9625293,13.0054645 L27.9625293,14.9726776 L30.9601874,14.9726776 L30.9601874,13.0054645 L27.9625293,13.0054645 Z M8.94613583,13.0054645 L8.94613583,14.9726776 L11.9437939,14.9726776 L11.9437939,13.0054645 L8.94613583,13.0054645 Z M20.9367681,2.98204528 L18.969555,2.98204528 L18.969555,5.97970336 L20.9367681,5.97970336 L20.9367681,2.98204528 Z M12.8805621,5.51131928 L11.4754098,6.91647151 L13.5831382,9.02419984 L14.9882904,7.61904762 L12.8805621,5.51131928 Z M24.9180328,7.61904762 L26.323185,9.02419984 L28.4309133,6.91647151 L27.0257611,5.51131928 L24.9180328,7.61904762 Z" id="Combined-Shape" fill="#4A4A4A"></path>
        </g>
    </g>
</svg>