<?xml version="1.0" encoding="UTF-8"?>
<svg width="40px" height="33px" viewBox="0 0 40 33" version="1.1" xmlns="http://www.w3.org/2000/svg" xmlns:xlink="http://www.w3.org/1999/xlink">
    <!-- Generator: Sketch 51.2 (57519) - http://www.bohemiancoding.com/sketch -->
    <title>Group 64</title>
    <desc>Created with Sketch.</desc>
    <defs></defs>
    <g id="Case-Management" stroke="none" stroke-width="1" fill="none" fill-rule="evenodd">
        <g id="Group-64" transform="translate(0.000000, -4.000000)">
            <rect id="Rectangle-11-Copy-8" fill-rule="nonzero" x="0" y="0" width="40" height="40"></rect>
            <path d="M36.056338,8.03755869 C37.1831042,8.03755869 38.122062,8.42879108 38.8732394,9.21126761 C39.6244169,9.99374413 40,10.9483512 40,12.0751174 L40,32.0751174 C40,33.2018836 39.6244169,34.1408413 38.8732394,34.8920188 C38.122062,35.6431962 37.1831042,36.0500779 36.056338,36.1126761 L3.94366197,36.1126761 C2.81689577,36.0500779 1.87793803,35.6431962 1.12676056,34.8920188 C0.375583099,34.1408413 0,33.2018836 0,32.0751174 L0,8.03755869 C0,6.91079249 0.375583099,5.97183474 1.12676056,5.22065728 C1.87793803,4.46947981 2.81689577,4.06259812 3.94366197,4 L15.9624413,4 L20,8.03755869 L36.056338,8.03755869 Z M31.9248826,30.1032864 L30.3286385,23.4366197 L35.4929577,18.9295775 L28.7323944,18.3661972 L26.0093897,12.0751174 L23.286385,18.3661972 L16.5258216,18.9295775 L21.6901408,23.4366197 L20.0938967,30.1032864 L26.0093897,26.629108 L31.9248826,30.1032864 Z" id="" fill="#4A4A4A"></path>
        </g>
    </g>
</svg>