<?xml version="1.0" encoding="UTF-8"?>
<svg width="40px" height="40px" viewBox="0 0 40 40" version="1.1" xmlns="http://www.w3.org/2000/svg" xmlns:xlink="http://www.w3.org/1999/xlink">
    <!-- Generator: Sketch 51.2 (57519) - http://www.bohemiancoding.com/sketch -->
    <title>Group 61</title>
    <desc>Created with Sketch.</desc>
    <defs></defs>
    <g id="Case-Management" stroke="none" stroke-width="1" fill="none" fill-rule="evenodd">
        <g id="Group-61">
            <rect id="Rectangle-11-Copy-5" fill-rule="nonzero" x="0" y="0" width="40" height="40"></rect>
            <path d="M13.9906103,40 C13.4272272,40 12.9577484,39.8122085 12.5821596,39.4366197 C12.2065709,39.061031 12.0187793,38.5915521 12.0187793,38.028169 L12.0187793,32.0187793 L3.94366197,32.0187793 C2.81689577,32.0187793 1.87793803,31.6275469 1.12676056,30.8450704 C0.375583099,30.0625939 0,29.1079869 0,27.9812207 L0,3.94366197 C0,2.81689577 0.375583099,1.87793803 1.12676056,1.12676056 C1.87793803,0.375583099 2.81689577,0 3.94366197,0 L36.056338,0 C37.1831042,0 38.122062,0.375583099 38.8732394,1.12676056 C39.6244169,1.87793803 40,2.81689577 40,3.94366197 L40,27.9812207 C40,29.1079869 39.6244169,30.0625939 38.8732394,30.8450704 C38.122062,31.6275469 37.1831042,32.0187793 36.056338,32.0187793 L23.8497653,32.0187793 L16.4319249,39.4366197 C15.993738,39.8122085 15.5242592,40 15.0234742,40 L13.9906103,40 Z M6.00938967,6.00938967 L6.00938967,9.95305164 L33.9906103,9.95305164 L33.9906103,6.00938967 L6.00938967,6.00938967 Z M6.00938967,13.9906103 L6.00938967,18.028169 L21.971831,18.028169 L21.971831,13.9906103 L6.00938967,13.9906103 Z M6.00938967,21.971831 L6.00938967,26.0093897 L26.0093897,26.0093897 L26.0093897,21.971831 L6.00938967,21.971831 Z" id="" fill="#4A4A4A"></path>
        </g>
    </g>
</svg>