<?xml version="1.0" encoding="UTF-8"?>
<svg width="40px" height="40px" viewBox="0 0 40 40" version="1.1" xmlns="http://www.w3.org/2000/svg" xmlns:xlink="http://www.w3.org/1999/xlink">
    <!-- Generator: Sketch 51.2 (57519) - http://www.bohemiancoding.com/sketch -->
    <title>Group 62</title>
    <desc>Created with Sketch.</desc>
    <defs></defs>
    <g id="Case-Management" stroke="none" stroke-width="1" fill="none" fill-rule="evenodd">
        <g id="Group-62">
            <rect id="Rectangle-11-Copy-6" fill-rule="nonzero" x="0" y="0" width="40" height="40"></rect>
            <path d="M26.0093897,33.3333333 L26.0093897,40 L6.00938967,40 L6.00938967,33.3333333 C9.13929577,35.1486789 12.4725958,36.056338 16.0093897,36.056338 C19.5461836,36.056338 22.8794836,35.1486789 26.0093897,33.3333333 Z M40,3.94366197 C40,5.32082066 39.4679239,6.41627136 38.4037559,7.23004695 C39.4679239,10.0469624 40,12.9577315 40,15.9624413 C40,19.906123 39.1236394,23.5680582 37.370892,26.9483568 C35.6181446,30.3286554 33.1768545,33.1768272 30.0469484,35.4929577 L30.0469484,38.028169 L27.9812207,38.028169 L27.9812207,34.4600939 C28.6698,34.021907 29.358369,33.5524282 30.0469484,33.0516432 C33.7402376,29.859139 36.1658784,26.0250615 37.3239437,21.5492958 C38.4820089,17.07353 38.2159709,12.5508836 36.5258216,7.98122066 L36.056338,7.98122066 C35.1799643,7.98122066 34.3974995,7.73083192 33.7089202,7.23004695 C32.7699484,6.54146761 32.222223,5.68075634 32.0657277,4.64788732 C31.9092324,3.61501831 32.1439718,2.62911268 32.7699531,1.69014085 C33.1455418,1.12675775 33.63067,0.704226761 34.2253521,0.422535211 C34.8200343,0.140843662 35.4303568,0 36.056338,0 C37.1831042,0 38.122062,0.375583099 38.8732394,1.12676056 C39.6244169,1.87793803 40,2.81689577 40,3.94366197 Z M32.0187793,15.9624413 C31.8935831,20.5321042 30.3286535,24.3192338 27.3239437,27.3239437 C24.3192338,30.3286535 20.5321042,31.8935831 15.9624413,32.0187793 C11.4553765,31.8935831 7.68389624,30.3286535 4.64788732,27.3239437 C1.6118784,24.3192338 0.0625981221,20.5321042 0,15.9624413 C0.0625981221,11.4553765 1.6118784,7.68389624 4.64788732,4.64788732 C7.68389624,1.6118784 11.4553765,0.0625981221 15.9624413,0 C20.5321042,0.0625981221 24.3192338,1.6118784 27.3239437,4.64788732 C30.3286535,7.68389624 31.8935831,11.4553765 32.0187793,15.9624413 Z M15.0078247,9.48356808 L15.0078247,20.5164319 L16.9796557,20.5164319 L16.9796557,9.48356808 L15.0078247,9.48356808 Z M16.9796557,22.4882629 L15.0078247,22.4882629 L15.0078247,24.5070423 L16.9796557,24.5070423 L16.9796557,22.4882629 Z" id="Combined-Shape" fill="#4A4A4A"></path>
        </g>
    </g>
</svg>